<svg width="250" height="136" viewBox="0 0 250 136" fill="none" xmlns="http://www.w3.org/2000/svg">
<path d="M50 85V60H37.5V85H25V60H12.5V85H0V47.5H62.5V85H50ZM125 85V97.5H87.5V85H75V47.5H87.5V35H125V47.5H137.5V85H125ZM87.5 60H112.5V47.5H87.5V60ZM125 60H112.5V72.5H87.5V85H125V60ZM237.5 47.5H225V35H237.5V47.5ZM225 60H212.5V47.5H225V60ZM212.5 60V72.5H200V60H212.5ZM212.5 85V72.5H225V85H212.5ZM225 97.5V85H237.5V97.5H225Z" fill="white"/>
<path d="M169.569 79.196L158.255 90.5097L146.941 79.196L158.255 67.8822L146.941 56.5685L158.255 45.2548L169.569 56.5685L180.882 45.2548L192.196 56.5685L180.882 67.8822L192.196 79.196L180.882 90.5097L169.569 79.196Z" fill="white"/>
</svg>
