<svg width="915" height="498" viewBox="0 0 915 498" fill="none" xmlns="http://www.w3.org/2000/svg">
<path d="M183 311.25V219.706H137.25V311.25H91.5V219.706H45.75V311.25H0V173.934H228.75V311.25H183ZM457.5 311.25V357.022H320.25V311.25H274.5V173.934H320.25V128.162H457.5V173.934H503.25V311.25H457.5ZM320.25 219.706H411.75V173.934H320.25V219.706ZM457.5 219.706H411.75V265.478H320.25V311.25H457.5V219.706ZM869.25 173.934H823.5V128.162H869.25V173.934ZM823.5 219.706H777.75V173.934H823.5V219.706ZM777.75 219.706V265.478H732V219.706H777.75ZM777.75 311.25V265.478H823.5V311.25H777.75ZM823.5 357.022V311.25H869.25V357.022H823.5Z" fill="#1E1E1E"/>
<path d="M620.623 289.997L579.213 331.425L537.804 289.997L579.213 248.569L537.804 207.141L579.213 165.712L620.623 207.141L662.028 165.712L703.438 207.141L662.028 248.569L703.438 289.997L662.028 331.425L620.623 289.997Z" fill="#1E1E1E"/>
</svg>
